HIERARCHY
ROOT Hips
{
	OFFSET 0.000000 103.266502 0.000000
	CHANNELS 6 Xposition Yposition Zposition Xrotation Yrotation Zrotation 
	JOINT Spine
	{
		OFFSET -0.002400 12.777504 0.315300
		CHANNELS 3 Xrotation Yrotation Zrotation
		JOINT Spine1
		{
			OFFSET -0.002067 5.816869 0.032633
			CHANNELS 3 Xrotation Yrotation Zrotation
			JOINT Spine1_split
			{
				OFFSET -0.002067 5.816869 0.032633
				CHANNELS 3 Xrotation Yrotation Zrotation
				JOINT Spine2
				{
					OFFSET -0.002067 5.816869 0.032633
					CHANNELS 3 Xrotation Yrotation Zrotation
					JOINT Neck
					{
						OFFSET -0.003700 21.199493 -0.826900
						CHANNELS 3 Xrotation Yrotation Zrotation
						JOINT Head
						{
							OFFSET 0.000000 20.442200 4.834800
							CHANNELS 3 Xrotation Yrotation Zrotation
							JOINT HeadTop_End
							{
								OFFSET 0.000000 34.668396 4.968400
								CHANNELS 3 Xrotation Yrotation Zrotation
								End Site
								{
									OFFSET 0.000000 0.000000 0.000000
								}
							}
						}
					}
					JOINT LeftShoulder
					{
						OFFSET 3.288150 8.794197 -1.372250
						CHANNELS 3 Xrotation Yrotation Zrotation
						JOINT LeftShoulder_split
						{
							OFFSET 3.288150 8.794197 -1.372250
							CHANNELS 3 Xrotation Yrotation Zrotation
							JOINT LeftArm
							{
								OFFSET 11.953299 -2.279007 -0.146200
								CHANNELS 3 Xrotation Yrotation Zrotation
								JOINT LeftForeArm
								{
									OFFSET 18.448900 0.000000 0.000000
									CHANNELS 3 Xrotation Yrotation Zrotation
									JOINT LeftHand
									{
										OFFSET 29.527798 0.000000 0.000000
										CHANNELS 3 Xrotation Yrotation Zrotation
										JOINT LeftHandThumb1
										{
											OFFSET 10.739754 -2.369614 9.225399
											CHANNELS 3 Xrotation Yrotation Zrotation
											JOINT LeftHandThumb2
											{
												OFFSET 4.926170 -2.844131 2.844125
												CHANNELS 3 Xrotation Yrotation Zrotation
												JOINT LeftHandThumb3
												{
													OFFSET 4.614891 -2.664413 2.664409
													CHANNELS 3 Xrotation Yrotation Zrotation
													JOINT LeftHandThumb4
													{
														OFFSET 4.432465 -2.559082 2.559083
														CHANNELS 3 Xrotation Yrotation Zrotation
														End Site
														{
															OFFSET 0.000000 0.000000 0.000000
														}
													}
												}
											}
										}
										JOINT LeftHandIndex1
										{
											OFFSET 26.467674 0.187653 6.405298
											CHANNELS 3 Xrotation Yrotation Zrotation
											JOINT LeftHandIndex2
											{
												OFFSET 8.792900 0.000000 0.000000
												CHANNELS 3 Xrotation Yrotation Zrotation
												JOINT LeftHandIndex3
												{
													OFFSET 10.075203 0.000000 0.000000
													CHANNELS 3 Xrotation Yrotation Zrotation
													End Site
													{
														OFFSET 0.000000 0.000000 0.000000
													}
												}
											}
										}
										JOINT LeftHandMiddle1
										{
											OFFSET 25.764404 0.000000 0.000000
											CHANNELS 3 Xrotation Yrotation Zrotation
											JOINT LeftHandMiddle2
											{
												OFFSET 9.393974 0.000000 0.000000
												CHANNELS 3 Xrotation Yrotation Zrotation
												JOINT LeftHandMiddle3
												{
													OFFSET 10.771950 0.000000 0.000000
													CHANNELS 3 Xrotation Yrotation Zrotation
													End Site
													{
														OFFSET 0.000000 0.000000 0.000000
													}
												}
											}
										}
										JOINT LeftHandRing1
										{
											OFFSET 24.660927 0.144547 -6.225808
											CHANNELS 3 Xrotation Yrotation Zrotation
											JOINT LeftHandRing2
											{
												OFFSET 9.393799 0.000000 0.000000
												CHANNELS 3 Xrotation Yrotation Zrotation
												JOINT LeftHandRing3
												{
													OFFSET 9.928497 0.000000 0.000000
													CHANNELS 3 Xrotation Yrotation Zrotation
													End Site
													{
														OFFSET 0.000000 0.000000 0.000000
													}
												}
											}
										}
										JOINT LeftHandPinky1
										{
											OFFSET 23.655350 0.125290 -12.815412
											CHANNELS 3 Xrotation Yrotation Zrotation
											JOINT LeftHandPinky2
											{
												OFFSET 8.425102 0.000000 0.000000
												CHANNELS 3 Xrotation Yrotation Zrotation
												JOINT LeftHandPinky3
												{
													OFFSET 8.147003 0.000000 0.000000
													CHANNELS 3 Xrotation Yrotation Zrotation
													End Site
													{
														OFFSET 0.000000 0.000000 0.000000
													}
												}
											}
										}
									}
								}
							}
						}
					}
					JOINT RightShoulder
					{
						OFFSET -3.249400 8.794197 -1.372250
						CHANNELS 3 Xrotation Yrotation Zrotation
						JOINT RightShoulder_split
						{
							OFFSET -3.249400 8.794197 -1.372250
							CHANNELS 3 Xrotation Yrotation Zrotation
							JOINT RightArm
							{
								OFFSET -11.953299 -2.279007 -0.146200
								CHANNELS 3 Xrotation Yrotation Zrotation
								JOINT RightForeArm
								{
									OFFSET -18.448900 0.000000 0.000000
									CHANNELS 3 Xrotation Yrotation Zrotation
									JOINT RightHand
									{
										OFFSET -29.527802 0.000000 0.000000
										CHANNELS 3 Xrotation Yrotation Zrotation
										JOINT RightHandThumb1
										{
											OFFSET -10.739754 -2.369614 9.225399
											CHANNELS 3 Xrotation Yrotation Zrotation
											JOINT RightHandThumb2
											{
												OFFSET -4.926170 -2.844131 2.844125
												CHANNELS 3 Xrotation Yrotation Zrotation
												JOINT RightHandThumb3
												{
													OFFSET -4.614891 -2.664413 2.664409
													CHANNELS 3 Xrotation Yrotation Zrotation
													JOINT RightHandThumb4
													{
														OFFSET -4.432465 -2.559082 2.559083
														CHANNELS 3 Xrotation Yrotation Zrotation
														End Site
														{
															OFFSET 0.000000 0.000000 0.000000
														}
													}
												}
											}
										}
										JOINT RightHandIndex1
										{
											OFFSET -26.467674 0.187653 6.405298
											CHANNELS 3 Xrotation Yrotation Zrotation
											JOINT RightHandIndex2
											{
												OFFSET -8.792900 0.000000 0.000000
												CHANNELS 3 Xrotation Yrotation Zrotation
												JOINT RightHandIndex3
												{
													OFFSET -10.075203 0.000000 0.000000
													CHANNELS 3 Xrotation Yrotation Zrotation
													End Site
													{
														OFFSET 0.000000 0.000000 0.000000
													}
												}
											}
										}
										JOINT RightHandMiddle1
										{
											OFFSET -25.764404 0.000000 0.000000
											CHANNELS 3 Xrotation Yrotation Zrotation
											JOINT RightHandMiddle2
											{
												OFFSET -9.393974 0.000000 0.000000
												CHANNELS 3 Xrotation Yrotation Zrotation
												JOINT RightHandMiddle3
												{
													OFFSET -10.771950 0.000000 0.000000
													CHANNELS 3 Xrotation Yrotation Zrotation
													End Site
													{
														OFFSET 0.000000 0.000000 0.000000
													}
												}
											}
										}
										JOINT RightHandRing1
										{
											OFFSET -24.660927 0.144547 -6.225808
											CHANNELS 3 Xrotation Yrotation Zrotation
											JOINT RightHandRing2
											{
												OFFSET -9.393799 0.000000 0.000000
												CHANNELS 3 Xrotation Yrotation Zrotation
												JOINT RightHandRing3
												{
													OFFSET -9.928497 0.000000 0.000000
													CHANNELS 3 Xrotation Yrotation Zrotation
													End Site
													{
														OFFSET 0.000000 0.000000 0.000000
													}
												}
											}
										}
										JOINT RightHandPinky1
										{
											OFFSET -23.655350 0.125290 -12.815412
											CHANNELS 3 Xrotation Yrotation Zrotation
											JOINT RightHandPinky2
											{
												OFFSET -8.425102 0.000000 0.000000
												CHANNELS 3 Xrotation Yrotation Zrotation
												JOINT RightHandPinky3
												{
													OFFSET -8.147003 0.000000 0.000000
													CHANNELS 3 Xrotation Yrotation Zrotation
													End Site
													{
														OFFSET 0.000000 0.000000 0.000000
													}
												}
											}
										}
									}
								}
							}
						}
					}
				}
			}
		}
	}
	JOINT LeftUpLeg
	{
		OFFSET 11.394100 -6.187798 -0.413800
		CHANNELS 3 Xrotation Yrotation Zrotation
		JOINT LeftLeg
		{
			OFFSET 0.430247 -32.302673 3.732800
			CHANNELS 3 Xrotation Yrotation Zrotation
			JOINT LeftFoot
			{
				OFFSET -0.430247 -48.264931 -6.423300
				CHANNELS 3 Xrotation Yrotation Zrotation
				JOINT LeftToeBase
				{
					OFFSET 4.230900 -16.068199 23.438400
					CHANNELS 3 Xrotation Yrotation Zrotation
					JOINT LeftToe_End
					{
						OFFSET 4.510700 0.695400 19.974600
						CHANNELS 3 Xrotation Yrotation Zrotation
						End Site
						{
							OFFSET 0.000000 0.000000 0.000000
						}
					}
				}
			}
		}
	}
	JOINT RightUpLeg
	{
		OFFSET -11.333700 -6.187798 -0.413800
		CHANNELS 3 Xrotation Yrotation Zrotation
		JOINT RightLeg
		{
			OFFSET -0.430392 -32.302628 3.733000
			CHANNELS 3 Xrotation Yrotation Zrotation
			JOINT RightFoot
			{
				OFFSET 0.430392 -48.264973 -6.423500
				CHANNELS 3 Xrotation Yrotation Zrotation
				JOINT RightToeBase
				{
					OFFSET -4.230900 -16.068199 23.438400
					CHANNELS 3 Xrotation Yrotation Zrotation
					JOINT RightToe_End
					{
						OFFSET -4.510700 0.695400 19.974600
						CHANNELS 3 Xrotation Yrotation Zrotation
						End Site
						{
							OFFSET 0.000000 0.000000 0.000000
						}
					}
				}
			}
		}
	}
}
MOTION
Frames: 5
Frame Time: 0.016667
-2.346411 91.741486 -0.067359 51.557106 -70.896544 52.649550 7.792525 3.338258 4.380070 12.707912 6.406382 6.655392 0.000000 0.000000 0.000000 12.728352 6.436530 6.586129 3.385417 -0.460113 2.258538 8.874431 1.648275 -4.487674 -0.000001 0.000000 0.000000 0.608283 -2.105578 -11.581398 0.000000 0.000000 0.000000 -46.459152 -29.078813 -92.550702 -0.000016 -20.859008 -0.000011 -20.416226 18.957800 30.637927 55.682690 -2.117556 45.305567 81.950345 -1.423297 50.782450 -10.247784 17.984627 1.554707 0.000000 -0.000000 -0.000001 0.230324 3.926598 -22.478598 5.723162 5.849663 -88.745324 0.000000 0.000000 0.000002 6.341373 9.458910 -58.484287 6.990985 5.739329 -101.253333 0.000001 -0.000001 0.000002 7.415899 8.807730 -74.918023 5.953060 5.850176 -91.000434 0.000002 -0.000001 0.000001 20.711408 9.388342 -85.840725 5.062042 5.797812 -82.236618 -0.000000 -0.000001 -0.000002 -0.784367 15.466939 22.252691 0.000000 0.000000 0.000000 -56.162877 25.008335 77.070946 0.000011 0.015603 0.000006 -12.877773 -7.607183 2.872466 -0.787132 13.150260 -22.268105 11.690792 -49.505641 19.340360 2.734741 -6.739206 -25.279054 -0.000001 -0.000003 0.000002 -2.857593 -16.672236 -11.849140 4.400802 -4.650145 86.841006 -0.000001 -0.000001 0.000002 6.189297 -11.029354 41.067127 5.549095 -4.571169 101.053216 0.000001 -0.000000 -0.000000 -0.865223 -4.640768 62.576329 4.860685 -4.652733 92.507515 -0.000001 0.000001 -0.000001 -13.667241 -1.460359 72.993173 3.233226 -4.434602 72.178167 -0.000001 -0.000000 -0.000000 -56.794590 2.418001 -2.734902 45.071537 -9.486393 1.583735 -4.881936 -0.506728 -0.413148 -0.379279 1.642668 -1.202613 -0.000000 -0.000000 -0.000000 -49.455026 -2.659243 -18.665334 45.825908 -5.621498 -2.294699 -9.149073 -1.858879 14.531106 -1.799720 0.000037 0.000007 0.000000 0.000000 -0.000000 
-2.352747 91.757393 -0.009555 51.476889 -70.880295 52.554272 7.793570 3.332848 4.368213 12.722934 6.393038 6.642680 0.000000 0.000000 0.000000 12.744223 6.422134 6.572934 3.354585 -0.453954 2.186402 8.724211 1.871173 -4.553506 -0.000000 0.000001 -0.000000 0.608194 -2.112957 -11.540768 0.000000 0.000000 0.000000 -46.406371 -29.046284 -92.578126 -0.000008 -20.879921 0.000006 -20.407325 18.976303 30.509362 55.367521 -2.060135 45.240919 83.883274 -1.387129 51.818483 -10.307655 17.537438 1.597565 0.000000 -0.000001 -0.000000 0.241768 3.953144 -22.443464 5.716003 5.849508 -88.675123 0.000001 0.000002 -0.000002 6.324671 9.455577 -58.401676 6.990988 5.739315 -101.253340 0.000001 0.000001 0.000001 7.408066 8.809515 -74.848471 5.949548 5.850232 -90.966010 -0.000001 -0.000000 -0.000002 20.660076 9.415009 -85.725308 5.052631 5.796515 -82.143393 0.000000 0.000000 -0.000002 -0.774900 15.458376 22.231156 0.000000 0.000000 0.000000 -54.597319 24.896576 76.442903 -0.000004 2.873070 0.000019 -12.870077 -9.290299 2.437201 -0.798234 13.174573 -22.271963 11.757493 -49.535899 19.412197 2.724983 -6.695505 -25.326406 0.000001 -0.000002 0.000002 -2.848298 -16.689887 -11.803241 4.402685 -4.650234 86.864133 -0.000001 -0.000000 -0.000001 6.207314 -11.051152 41.060908 5.549098 -4.571153 101.053236 0.000001 -0.000001 0.000000 -0.875330 -4.637307 62.599394 4.858822 -4.652815 92.484306 0.000002 0.000001 -0.000000 -13.666204 -1.439285 72.929714 3.229966 -4.433576 72.135936 -0.000000 -0.000000 0.000000 -56.752209 2.411676 -2.774332 45.038203 -9.456352 1.581928 -4.877279 -0.513148 -0.368130 -0.314253 1.660589 -1.234944 0.000000 0.000000 0.000000 -49.376725 -2.673794 -18.713366 45.745725 -5.584295 -2.267053 -9.126103 -1.900363 14.555049 -1.807293 -0.000050 -0.000004 -0.000000 0.000000 0.000000 
-2.354481 91.771446 0.049822 51.410673 -70.858432 52.476760 7.794881 3.322500 4.359031 12.734703 6.382450 6.620568 0.000000 0.000000 0.000000 12.753690 6.413127 6.553443 3.323820 -0.449300 2.118596 8.568388 2.100355 -4.603548 0.000003 0.000001 -0.000001 0.607737 -2.121759 -11.501765 0.000000 0.000000 0.000000 -46.348769 -29.026190 -92.588699 -0.000004 -20.910906 0.000014 -20.414901 18.980124 30.448198 55.053425 -2.001823 45.179809 85.655326 -1.068752 52.951615 -10.366749 17.090011 1.640437 -0.000002 0.000000 0.000000 0.253193 3.979749 -22.408329 5.708862 5.849346 -88.604957 0.000001 0.000000 0.000001 6.307998 9.452194 -58.319092 6.990980 5.739336 -101.253340 -0.000001 0.000001 0.000004 7.400232 8.811299 -74.778933 5.946046 5.850279 -90.931640 -0.000000 -0.000000 -0.000003 20.608663 9.441496 -85.609851 5.043215 5.795217 -82.050134 0.000001 0.000002 -0.000005 -0.771690 15.442484 22.219746 0.000000 0.000000 0.000000 -54.175544 25.033921 76.267757 -0.000007 3.450922 0.000010 -13.186365 -9.532940 2.438376 -0.811496 13.198134 -22.276923 11.835169 -49.570176 19.494960 2.713442 -6.643952 -25.382928 0.000001 -0.000001 0.000001 -2.834086 -16.711497 -11.736782 4.407210 -4.650482 86.920058 -0.000000 -0.000002 -0.000002 6.223067 -11.065505 41.078923 5.549095 -4.571140 101.053243 -0.000002 -0.000000 -0.000000 -0.885581 -4.633927 62.624638 4.855908 -4.652928 92.448578 -0.000002 0.000000 -0.000001 -13.660880 -1.426053 72.885324 3.226686 -4.432525 72.093753 0.000001 -0.000000 -0.000000 -56.722699 2.381940 -2.813545 44.993987 -9.348853 1.565227 -4.845194 -0.516489 -0.350584 -0.366034 1.568038 -1.148000 -0.000000 -0.000000 -0.000000 -49.313880 -2.684519 -18.765810 45.669240 -5.561415 -2.243622 -9.099549 -1.925813 14.584716 -1.783692 -0.000012 0.000007 -0.000000 0.000000 0.000000 
-2.353659 91.783951 0.110404 51.350291 -70.833631 52.406351 7.795945 3.317512 4.345637 12.748111 6.372648 6.603425 0.000000 0.000000 0.000000 12.767399 6.402607 6.536460 3.292767 -0.439169 2.047274 8.416540 2.324650 -4.644372 -0.000000 0.000001 -0.000002 0.605204 -2.134129 -11.471704 0.000000 0.000000 0.000000 -46.290395 -29.015327 -92.588528 -0.000004 -20.949879 0.000003 -20.434099 18.977769 30.419248 54.740394 -1.942660 45.122221 87.181054 -0.340560 54.208391 -10.425095 16.642388 1.683340 0.000000 0.000001 0.000001 0.264602 4.006384 -22.373266 5.701700 5.849149 -88.534708 -0.000002 -0.000000 -0.000000 6.291373 9.448799 -58.236522 6.990984 5.739327 -101.253340 0.000001 0.000000 0.000000 7.392387 8.813058 -74.709415 5.942540 5.850364 -90.897230 0.000001 -0.000000 0.000003 20.557138 9.467799 -85.494420 5.033804 5.793907 -81.956915 0.000000 -0.000000 -0.000001 -0.765688 15.424787 22.200335 0.000000 0.000000 0.000000 -53.294764 25.069712 75.930817 -0.000005 4.975349 0.000005 -13.266086 -10.397366 2.181825 -0.824677 13.208705 -22.283776 11.930273 -49.611684 19.594110 2.699770 -6.586557 -25.450480 -0.000001 -0.000003 -0.000000 -2.809472 -16.735784 -11.630353 4.407955 -4.650508 86.929382 -0.000001 0.000003 0.000001 6.238551 -11.074680 41.121168 5.549099 -4.571170 101.053236 -0.000001 -0.000000 0.000000 -0.896612 -4.631386 62.666125 4.854707 -4.652988 92.433401 0.000000 0.000000 0.000001 -13.676185 -1.418063 72.876588 3.223443 -4.431473 72.051502 -0.000001 -0.000000 -0.000000 -56.703216 2.396290 -2.863522 44.976529 -9.366693 1.569315 -4.852742 -0.523867 -0.298728 -0.297194 1.680638 -1.255449 -0.000000 0.000000 -0.000000 -49.254652 -2.682056 -18.818868 45.596396 -5.530759 -2.213740 -9.071238 -1.967547 14.613133 -1.794737 -0.000003 -0.000001 -0.000000 -0.000001 -0.000000 
-2.349995 91.795174 0.172751 51.292504 -70.805450 52.339692 7.796604 3.317138 4.332763 12.761459 6.360626 6.585522 0.000000 0.000000 0.000000 12.782058 6.390455 6.516434 3.261843 -0.433260 1.978207 8.264424 2.555791 -4.677143 0.000000 0.000001 0.000002 0.622097 -2.152977 -11.444258 0.000000 0.000000 0.000000 -46.248959 -29.013544 -92.576780 -0.000001 -20.995868 0.000005 -20.466459 18.967205 30.424316 54.428411 -1.882584 45.068156 88.683429 0.391179 55.479106 -10.482707 16.194544 1.726287 0.000000 -0.000001 -0.000000 0.275997 4.033100 -22.338217 5.694568 5.848978 -88.464494 -0.000001 0.000000 0.000001 6.274771 9.445379 -58.153959 6.990968 5.739333 -101.253340 0.000001 0.000002 0.000002 7.384546 8.814834 -74.639843 5.939040 5.850417 -90.862819 0.000000 -0.000000 -0.000001 20.505493 9.493890 -85.378929 5.024382 5.792562 -81.863690 0.000001 0.000001 -0.000003 -0.770512 15.402012 22.186667 0.000000 0.000000 0.000000 -52.826937 25.199981 75.725372 0.000012 5.532883 -0.000003 -14.100309 -10.260831 2.369775 -0.842379 13.224646 -22.291482 12.053620 -49.666199 19.723276 2.682991 -6.520969 -25.534176 0.000001 -0.000001 0.000001 -2.776889 -16.763005 -11.493073 4.406768 -4.650451 86.914335 -0.000001 0.000004 -0.000002 6.259084 -11.089154 41.165509 5.549096 -4.571161 101.053223 0.000002 0.000000 0.000000 -0.910466 -4.628386 62.719592 4.853417 -4.653070 92.417862 -0.000001 0.000000 0.000001 -13.699692 -1.407231 72.867299 3.220149 -4.430380 72.008881 0.000000 -0.000000 -0.000000 -56.682548 2.419026 -2.909746 44.939254 -9.346332 1.577964 -4.816101 -0.529671 -0.258855 -0.307519 1.694455 -1.263364 -0.000000 -0.000000 -0.000000 -49.197805 -2.664600 -18.875771 45.526479 -5.524117 -2.175416 -9.041048 -1.994739 14.647071 -1.766012 -0.000021 0.000004 0.000000 0.000000 0.000000 
